<?xml version="1.0" encoding="UTF-8"?>
<!DOCTYPE svg PUBLIC "-//W3C//DTD SVG 1.1//EN" "http://www.w3.org/Graphics/SVG/1.1/DTD/svg11.dtd">
<svg version="1.2" xmlns="http://www.w3.org/2000/svg" xmlns:xlink="http://www.w3.org/1999/xlink" x="0" y="0" width="831" height="382" viewBox="0 0 831 382">
<style type="text/css"><![CDATA[
text { font:12px Dialog; }
]]></style>
<rect x="-485" y="-485" width="1801" height="1352" style="fill:rgb(254,251,245);stroke:none" />
<clipPath id="clip1"><path d="M15,15 L816,15 L816,367 L15,367 Z M278,18 L278,89 L552,89 L552,18 Z M278,18 Z M278,18" /></clipPath>
<path d="M415,96.5 L139.109375,96.5 C134.6953125,96.5 131.109375,100.0859375 131.109375,104.5 L131.109375,126 L132.109375,126 L132.109375,109.5 C132.109375,105.0859375 135.6953125,101.5 140.109375,101.5 L415,101.5 Z M415,96.5" style="fill:rgb(104,153,147);stroke:none" clip-path="url(#clip1)" />
<clipPath id="clip2"><path d="M15,15 L816,15 L816,367 L15,367 Z M278,18 L278,89 L552,89 L552,18 Z M278,18 Z M278,18" /></clipPath>
<path d="M415,96.5 L409.109375,96.5 C404.6953125,96.5 401.109375,100.0859375 401.109375,104.5 L401.109375,126 L402.109375,126 L402.109375,109.5 C402.109375,105.0859375 405.6953125,101.5 410.109375,101.5 L415,101.5 Z M415,96.5" style="fill:rgb(104,153,147);stroke:none" clip-path="url(#clip2)" />
<clipPath id="clip3"><path d="M15,15 L816,15 L816,367 L15,367 Z M278,18 L278,89 L552,89 L552,18 Z M278,18 Z M278,18" /></clipPath>
<path d="M415,101.5 L677.109375,101.5 C681.5273438,101.5 685.109375,105.0859375 685.109375,109.5 L685.109375,126 L686.109375,126 L686.109375,104.5 C686.109375,100.0859375 682.5273438,96.5 678.109375,96.5 L415,96.5 Z M415,101.5" style="fill:rgb(104,153,147);stroke:none" clip-path="url(#clip3)" />
<clipPath id="clip4"><path d="M14,14 L817,14 L817,368 L14,368 L14,14 Z" /></clipPath>
<path d="M415,89 L415,99" style="fill:none;stroke:rgb(104,153,147)" clip-path="url(#clip4)" />
<clipPath id="clip5"><path d="M274,14 L557,14 L557,94 L274,94 L274,14 Z" /></clipPath>
<path d="M278,18 L278,89 L552,89 L552,18 Z M278,18" style="fill:none;stroke:rgb(104,153,147);stroke-width:5" clip-path="url(#clip5)" />
<text x="315" y="59" style="font:22px Georgia">Pyslvs (Python)</text>
<clipPath id="clip6"><path d="M15,124 L249,124 L249,273 L15,273 Z M35,126 L35,170 L228,170 L228,126 Z M35,126 Z M35,126" /></clipPath>
<path d="M131.6757813,183 L132,183 L132,193" style="fill:none;stroke:rgb(104,153,147)" clip-path="url(#clip6)" />
<clipPath id="clip7"><path d="M14,123 L250,123 L250,274 L14,274 L14,123 Z" /></clipPath>
<path d="M131.609375,170 L131.6757813,183" style="fill:none;stroke:rgb(104,153,147)" clip-path="url(#clip7)" />
<clipPath id="clip8"><path d="M32,123 L232,123 L232,174 L32,174 L32,123 Z" /></clipPath>
<path d="M35,126 L35,170 L228,170 L228,126 Z M35,126" style="fill:none;stroke:rgb(104,153,147);stroke-width:4" clip-path="url(#clip8)" />
<text x="52" y="150" style="font:15px 文泉驛微米黑">平面連桿機構模擬</text>
<clipPath id="clip9"><path d="M15,192 L249,192 L249,273 L15,273 Z M43,193 L43,222 L221,222 L221,193 Z M43,193 Z M43,193" /></clipPath>
<path d="M132,235 L80.5664063,235 C78.359375,235 76.5664063,236.7929688 76.5664063,239 L76.5664063,244" style="fill:none;stroke:rgb(104,153,147)" clip-path="url(#clip9)" />
<clipPath id="clip10"><path d="M15,192 L249,192 L249,273 L15,273 Z M43,193 L43,222 L221,222 L221,193 Z M43,193 Z M43,193" /></clipPath>
<path d="M132,235 L190,235 C192.2070313,235 194,236.7929688 194,239 L194,244" style="fill:none;stroke:rgb(104,153,147)" clip-path="url(#clip10)" />
<clipPath id="clip11"><path d="M14,191 L250,191 L250,274 L14,274 L14,191 Z" /></clipPath>
<path d="M132,222 L132,235" style="fill:none;stroke:rgb(104,153,147)" clip-path="url(#clip11)" />
<clipPath id="clip12"><path d="M41,191 L224,191 L224,225 L41,225 L41,191 Z" /></clipPath>
<path d="M43,193 L43,222 L221,222 L221,193 Z M43,193" style="fill:none;stroke:rgb(104,153,147)" clip-path="url(#clip12)" />
<text x="56" y="209" style="font:14px Droid Serif">Solvespace (C++)</text>
<clipPath id="clip13"><path d="M14,242 L140,242 L140,274 L14,274 L14,242 Z" /></clipPath>
<path d="M16,244 L16,271 L137,271 L137,244 Z M16,244" style="fill:none;stroke:rgb(104,153,147)" clip-path="url(#clip13)" />
<text x="27" y="257" style="font:10px Droid Serif">連接方式：SWIG</text>
<clipPath id="clip14"><path d="M139,242 L250,242 L250,274 L139,274 L139,242 Z" /></clipPath>
<path d="M141,244 L141,271 L247,271 L247,244 Z M141,244" style="fill:none;stroke:rgb(104,153,147)" clip-path="url(#clip14)" />
<text x="152" y="257" style="font:10px Droid Serif">開源 CAD 程式</text>
<clipPath id="clip15"><path d="M259,124 L546,124 L546,367 L259,367 Z M345,126 L345,170 L458,170 L458,126 Z M345,126 Z M345,126" /></clipPath>
<path d="M401.6757813,183 L401.578125,183 L401.578125,193" style="fill:none;stroke:rgb(104,153,147)" clip-path="url(#clip15)" />
<clipPath id="clip16"><path d="M258,123 L547,123 L547,368 L258,368 L258,123 Z" /></clipPath>
<path d="M401.609375,170 L401.6757813,183" style="fill:none;stroke:rgb(104,153,147)" clip-path="url(#clip16)" />
<clipPath id="clip17"><path d="M342,123 L462,123 L462,174 L342,174 L342,123 Z" /></clipPath>
<path d="M345,126 L345,170 L458,170 L458,126 Z M345,126" style="fill:none;stroke:rgb(104,153,147);stroke-width:4" clip-path="url(#clip17)" />
<text x="362" y="150" style="font:15px 文泉驛等寬微米黑">尺寸合成</text>
<clipPath id="clip18"><path d="M259,192 L546,192 L546,367 L259,367 Z M344,193 L344,224 L459,224 L459,193 Z M344,193 Z M344,193" /></clipPath>
<path d="M401.640625,237 L328.5664063,237 C326.359375,237 324.5664063,238.7929688 324.5664063,241 L324.5664063,246" style="fill:none;stroke:rgb(104,153,147)" clip-path="url(#clip18)" />
<clipPath id="clip19"><path d="M259,192 L546,192 L546,367 L259,367 Z M344,193 L344,224 L459,224 L459,193 Z M344,193 Z M344,193" /></clipPath>
<path d="M401.640625,237 L464.5664063,237 C466.7773438,237 468.5664063,238.7929688 468.5664063,241 L468.5664063,246" style="fill:none;stroke:rgb(104,153,147)" clip-path="url(#clip19)" />
<clipPath id="clip20"><path d="M258,191 L547,191 L547,368 L258,368 L258,191 Z" /></clipPath>
<path d="M401.578125,224 L401.640625,237" style="fill:none;stroke:rgb(104,153,147)" clip-path="url(#clip20)" />
<clipPath id="clip21"><path d="M342,191 L462,191 L462,227 L342,227 L342,191 Z" /></clipPath>
<path d="M344,193 L344,224 L459,224 L459,193 Z M344,193" style="fill:none;stroke:rgb(104,153,147)" clip-path="url(#clip21)" />
<text x="356" y="208" style="font:12px Droid Serif">演算法 (C++)</text>
<clipPath id="clip22"><path d="M258,244 L392,244 L392,276 L258,276 L258,244 Z" /></clipPath>
<path d="M260,246 L260,273 L389,273 L389,246 Z M260,246" style="fill:none;stroke:rgb(104,153,147)" clip-path="url(#clip22)" />
<text x="271" y="259" style="font:10px Droid Serif">連接方式：Cython</text>
<clipPath id="clip23"><path d="M392,245 L546,245 L546,367 L392,367 Z M393,246 L393,273 L544,273 L544,246 Z M393,246 Z M393,246" /></clipPath>
<path d="M468.6328125,286 C468.8359375,286 469,287.7929688 469,290 L469,295" style="fill:none;stroke:rgb(104,153,147)" clip-path="url(#clip23)" />
<clipPath id="clip24"><path d="M391,244 L547,244 L547,368 L391,368 L391,244 Z" /></clipPath>
<path d="M468.5664063,273 L468.6328125,286" style="fill:none;stroke:rgb(104,153,147)" clip-path="url(#clip24)" />
<clipPath id="clip25"><path d="M391,244 L547,244 L547,276 L391,276 L391,244 Z" /></clipPath>
<path d="M393,246 L393,273 L544,273 L544,246 Z M393,246" style="fill:none;stroke:rgb(104,153,147)" clip-path="url(#clip25)" />
<text x="404" y="259" style="font:10px Droid Serif">產生符合條件的連桿組</text>
<clipPath id="clip26"><path d="M404,294 L535,294 L535,367 L404,367 Z M405,295 L405,322 L533,322 L533,295 Z M405,295 Z M405,295" /></clipPath>
<path d="M469,335 L444.5546875,335 C442.34375,335 440.5546875,336.7929688 440.5546875,339 L440.5546875,344" style="fill:none;stroke:rgb(104,153,147)" clip-path="url(#clip26)" />
<clipPath id="clip27"><path d="M404,294 L535,294 L535,367 L404,367 Z M405,295 L405,322 L533,322 L533,295 Z M405,295 Z M405,295" /></clipPath>
<path d="M469,335 L494.5546875,335 C496.7617188,335 498.5546875,336.7929688 498.5546875,339 L498.5546875,344" style="fill:none;stroke:rgb(104,153,147)" clip-path="url(#clip27)" />
<clipPath id="clip28"><path d="M403,293 L536,293 L536,368 L403,368 L403,293 Z" /></clipPath>
<path d="M469,322 L469,335" style="fill:none;stroke:rgb(104,153,147)" clip-path="url(#clip28)" />
<clipPath id="clip29"><path d="M403,293 L536,293 L536,325 L403,325 L403,293 Z" /></clipPath>
<path d="M405,295 L405,322 L533,322 L533,295 Z M405,295" style="fill:none;stroke:rgb(104,153,147)" clip-path="url(#clip29)" />
<text x="415" y="308" style="font:10px Droid Serif">驗證 API (Python)</text>
<clipPath id="clip30"><path d="M411,342 L471,342 L471,368 L411,368 L411,342 Z" /></clipPath>
<path d="M413,344 L413,365 L468,365 L468,344 Z M413,344" style="fill:none;stroke:rgb(104,153,147)" clip-path="url(#clip30)" />
<text x="423" y="357" style="font:10px Droid Serif">PLAP</text>
<clipPath id="clip31"><path d="M470,342 L528,342 L528,368 L470,368 L470,342 Z" /></clipPath>
<path d="M472,344 L472,365 L525,365 L525,344 Z M472,344" style="fill:none;stroke:rgb(104,153,147)" clip-path="url(#clip31)" />
<text x="482" y="357" style="font:10px Droid Serif">PLLP</text>
<clipPath id="clip32"><path d="M556,124 L816,124 L816,273 L556,273 Z M619,126 L619,170 L752,170 L752,126 Z M619,126 Z M619,126" /></clipPath>
<path d="M685.6757813,183 L686,183 L686,193" style="fill:none;stroke:rgb(104,153,147)" clip-path="url(#clip32)" />
<clipPath id="clip33"><path d="M555,123 L817,123 L817,274 L555,274 L555,123 Z" /></clipPath>
<path d="M685.609375,170 L685.6757813,183" style="fill:none;stroke:rgb(104,153,147)" clip-path="url(#clip33)" />
<clipPath id="clip34"><path d="M616,123 L756,123 L756,174 L616,174 L616,123 Z" /></clipPath>
<path d="M619,126 L619,170 L752,170 L752,126 Z M619,126" style="fill:none;stroke:rgb(104,153,147);stroke-width:4" clip-path="url(#clip34)" />
<text x="635" y="150" style="font:15px 文泉驛等寬微米黑">圖形化介面</text>
<clipPath id="clip35"><path d="M556,192 L816,192 L816,273 L556,273 Z M636,193 L636,222 L736,222 L736,193 Z M636,193 Z M636,193" /></clipPath>
<path d="M686,235 L618.5664063,235 C616.359375,235 614.5664063,236.7929688 614.5664063,239 L614.5664063,244" style="fill:none;stroke:rgb(104,153,147)" clip-path="url(#clip35)" />
<clipPath id="clip36"><path d="M556,192 L816,192 L816,273 L556,273 Z M636,193 L636,222 L736,222 L736,193 Z M636,193 Z M636,193" /></clipPath>
<path d="M686,235 L741,235 C743.2070313,235 745,236.7929688 745,239 L745,244" style="fill:none;stroke:rgb(104,153,147)" clip-path="url(#clip36)" />
<clipPath id="clip37"><path d="M555,191 L817,191 L817,274 L555,274 L555,191 Z" /></clipPath>
<path d="M686,222 L686,235" style="fill:none;stroke:rgb(104,153,147)" clip-path="url(#clip37)" />
<clipPath id="clip38"><path d="M634,191 L739,191 L739,225 L634,225 L634,191 Z" /></clipPath>
<path d="M636,193 L636,222 L736,222 L736,193 Z M636,193" style="fill:none;stroke:rgb(104,153,147)" clip-path="url(#clip38)" />
<text x="648" y="209" style="font:14px Droid Serif">Qt (C++)</text>
<clipPath id="clip39"><path d="M555,242 L675,242 L675,274 L555,274 L555,242 Z" /></clipPath>
<path d="M557,244 L557,271 L672,271 L672,244 Z M557,244" style="fill:none;stroke:rgb(104,153,147)" clip-path="url(#clip39)" />
<text x="567" y="257" style="font:10px Droid Serif">連接方式：PyQt</text>
<clipPath id="clip40"><path d="M674,242 L817,242 L817,274 L674,274 L674,242 Z" /></clipPath>
<path d="M676,244 L676,271 L814,271 L814,244 Z M676,244" style="fill:none;stroke:rgb(104,153,147)" clip-path="url(#clip40)" />
<text x="686" y="257" style="font:10px Droid Serif">開源跨平台程式框架</text>
</svg>
